<svg width="248" height="44" viewBox="0 0 248 44" fill="none" xmlns="http://www.w3.org/2000/svg">
<circle cx="22.4778" cy="22.2112" r="19.4808" stroke="#F7A32C" stroke-width="4.51729"/>
<mask id="mask0_6327_10476" style="mask-type:alpha" maskUnits="userSpaceOnUse" x="0" y="0" width="31" height="37">
<path d="M16.5508 0.0742188L30.2431 7.97948L14.0373 36.0487L0.344989 28.1435L16.5508 0.0742188Z" fill="#C4C4C4"/>
</mask>
<g mask="url(#mask0_6327_10476)">
<path fill-rule="evenodd" clip-rule="evenodd" d="M16.3559 32.8233C22.2165 36.2069 29.7104 34.1989 33.0941 28.3383C36.4777 22.4777 34.4697 14.9838 28.6091 11.6002C22.7485 8.21658 15.2546 10.2246 11.871 16.0852C8.48735 21.9458 10.4953 29.4397 16.3559 32.8233ZM14.3796 36.2464C22.1307 40.7215 32.042 38.0657 36.5171 30.3146C40.9922 22.5635 38.3365 12.6522 30.5854 8.17711C22.8343 3.70201 12.923 6.35774 8.44789 14.1088C3.97278 21.86 6.62851 31.7713 14.3796 36.2464Z" fill="#F7A02C"/>
<path fill-rule="evenodd" clip-rule="evenodd" d="M19.1207 28.0304C22.3346 29.886 26.4442 28.7848 28.2997 25.5709C30.1553 22.357 29.0541 18.2475 25.8402 16.3919C22.6263 14.5364 18.5168 15.6376 16.6612 18.8514C14.8057 22.0653 15.9069 26.1749 19.1207 28.0304ZM17.1444 31.4535C22.2488 34.4005 28.7758 32.6516 31.7228 27.5472C34.6698 22.4428 32.9209 15.9159 27.8165 12.9689C22.7121 10.0218 16.1852 11.7707 13.2382 16.8751C10.2911 21.9795 12.04 28.5065 17.1444 31.4535Z" fill="#F7A02C"/>
</g>
<circle cx="29.2585" cy="9.69091" r="1.97632" transform="rotate(30 29.2585 9.69091)" fill="#F7A02C"/>
<circle cx="26.489" cy="14.4839" r="1.97632" transform="rotate(30 26.489 14.4839)" fill="#F7A02C"/>
<ellipse cx="17.7898" cy="29.5454" rx="1.97632" ry="1.97632" transform="rotate(30 17.7898 29.5454)" fill="#F7A02C"/>
<ellipse cx="15.0242" cy="34.3374" rx="1.97632" ry="1.97632" transform="rotate(30 15.0242 34.3374)" fill="#F7A02C"/>
<path d="M62.8387 37.9722C59.2995 37.9722 56.3398 36.782 53.9595 34.4017C51.6105 32.0214 50.436 29.0773 50.436 25.5695C50.436 22.0617 51.6105 19.1176 53.9595 16.7373C56.3398 14.357 59.2995 13.1668 62.8387 13.1668C65.125 13.1668 67.2078 13.7149 69.087 14.8111C70.9662 15.9073 72.3913 17.3793 73.3622 19.2272L68.1474 22.2809C67.6776 21.31 66.9573 20.5426 65.9863 19.9789C65.0467 19.4151 63.9819 19.1332 62.7917 19.1332C60.9752 19.1332 59.4718 19.744 58.2816 20.9655C57.0915 22.1556 56.4964 23.6903 56.4964 25.5695C56.4964 27.4174 57.0915 28.952 58.2816 30.1735C59.4718 31.3637 60.9752 31.9587 62.7917 31.9587C64.0132 31.9587 65.0937 31.6925 66.0333 31.1601C67.0042 30.5963 67.7246 29.829 68.1944 28.8581L73.4561 31.8648C72.4226 33.7127 70.9662 35.2004 69.087 36.3279C67.2078 37.4241 65.125 37.9722 62.8387 37.9722ZM93.9588 34.4017C91.5472 36.782 88.6031 37.9722 85.1266 37.9722C81.6501 37.9722 78.706 36.782 76.2944 34.4017C73.9141 31.9901 72.7239 29.046 72.7239 25.5695C72.7239 22.093 73.9141 19.1646 76.2944 16.7843C78.706 14.3726 81.6501 13.1668 85.1266 13.1668C88.6031 13.1668 91.5472 14.3726 93.9588 16.7843C96.3704 19.1646 97.5763 22.093 97.5763 25.5695C97.5763 29.046 96.3704 31.9901 93.9588 34.4017ZM80.5695 30.2205C81.791 31.442 83.31 32.0527 85.1266 32.0527C86.9431 32.0527 88.4622 31.442 89.6836 30.2205C90.9051 28.999 91.5159 27.4487 91.5159 25.5695C91.5159 23.6903 90.9051 22.14 89.6836 20.9185C88.4622 19.697 86.9431 19.0863 85.1266 19.0863C83.31 19.0863 81.791 19.697 80.5695 20.9185C79.3794 22.14 78.7843 23.6903 78.7843 25.5695C78.7843 27.4487 79.3794 28.999 80.5695 30.2205ZM117.343 13.8245H123.403V37.3145H117.343V34.5426C115.526 36.829 112.974 37.9722 109.685 37.9722C106.553 37.9722 103.86 36.782 101.605 34.4017C99.3811 31.9901 98.2692 29.046 98.2692 25.5695C98.2692 22.093 99.3811 19.1646 101.605 16.7843C103.86 14.3726 106.553 13.1668 109.685 13.1668C112.974 13.1668 115.526 14.31 117.343 16.5963V13.8245ZM106.162 30.3614C107.383 31.5829 108.934 32.1936 110.813 32.1936C112.692 32.1936 114.242 31.5829 115.464 30.3614C116.717 29.1086 117.343 27.5113 117.343 25.5695C117.343 23.6277 116.717 22.046 115.464 20.8245C114.242 19.5717 112.692 18.9453 110.813 18.9453C108.934 18.9453 107.383 19.5717 106.162 20.8245C104.94 22.046 104.33 23.6277 104.33 25.5695C104.33 27.5113 104.94 29.1086 106.162 30.3614ZM137.731 37.9722C134.192 37.9722 131.232 36.782 128.852 34.4017C126.503 32.0214 125.329 29.0773 125.329 25.5695C125.329 22.0617 126.503 19.1176 128.852 16.7373C131.232 14.357 134.192 13.1668 137.731 13.1668C140.018 13.1668 142.1 13.7149 143.98 14.8111C145.859 15.9073 147.284 17.3793 148.255 19.2272L143.04 22.2809C142.57 21.31 141.85 20.5426 140.879 19.9789C139.939 19.4151 138.874 19.1332 137.684 19.1332C135.868 19.1332 134.364 19.744 133.174 20.9655C131.984 22.1556 131.389 23.6903 131.389 25.5695C131.389 27.4174 131.984 28.952 133.174 30.1735C134.364 31.3637 135.868 31.9587 137.684 31.9587C138.906 31.9587 139.986 31.6925 140.926 31.1601C141.897 30.5963 142.617 29.829 143.087 28.8581L148.349 31.8648C147.315 33.7127 145.859 35.2004 143.98 36.3279C142.1 37.4241 140.018 37.9722 137.731 37.9722ZM162.265 13.1668C164.834 13.1668 166.948 14.0281 168.608 15.7507C170.299 17.4733 171.145 19.8536 171.145 22.8916V37.3145H165.084V23.6433C165.084 22.0773 164.661 20.8872 163.816 20.0728C162.97 19.2272 161.843 18.8044 160.433 18.8044C158.867 18.8044 157.614 19.2898 156.675 20.2608C155.735 21.2317 155.265 22.6881 155.265 24.6299V37.3145H149.205V4.42855H155.265V16.4554C156.737 14.263 159.071 13.1668 162.265 13.1668ZM199.95 13.1668C202.644 13.1668 204.789 14.0438 206.386 15.7977C208.015 17.5516 208.829 19.9006 208.829 22.8447V37.3145H202.769V23.2675C202.769 21.8581 202.424 20.7619 201.735 19.9789C201.046 19.1959 200.075 18.8044 198.823 18.8044C197.445 18.8044 196.364 19.2585 195.581 20.1668C194.829 21.0751 194.454 22.3905 194.454 24.1131V37.3145H188.393V23.2675C188.393 21.8581 188.049 20.7619 187.36 19.9789C186.671 19.1959 185.7 18.8044 184.447 18.8044C183.1 18.8044 182.019 19.2585 181.205 20.1668C180.422 21.0751 180.031 22.3905 180.031 24.1131V37.3145H173.97V13.8245H180.031V16.3145C181.44 14.216 183.617 13.1668 186.561 13.1668C189.442 13.1668 191.572 14.2943 192.95 16.5494C194.516 14.2943 196.849 13.1668 199.95 13.1668ZM214.634 11.0057C213.632 11.0057 212.755 10.6456 212.003 9.92519C211.283 9.17351 210.923 8.29656 210.923 7.29432C210.923 6.29208 211.283 5.41513 212.003 4.66345C212.755 3.91177 213.632 3.53593 214.634 3.53593C215.668 3.53593 216.545 3.91177 217.265 4.66345C218.017 5.41513 218.393 6.29208 218.393 7.29432C218.393 8.29656 218.017 9.17351 217.265 9.92519C216.545 10.6456 215.668 11.0057 214.634 11.0057ZM211.628 37.3145V13.8245H217.688V37.3145H211.628ZM226.007 28.0594C226.821 31.0035 229.029 32.4755 232.631 32.4755C234.949 32.4755 236.702 31.6925 237.893 30.1265L242.779 32.9453C240.461 36.2966 237.047 37.9722 232.537 37.9722C228.653 37.9722 225.537 36.7977 223.188 34.4487C220.839 32.0997 219.664 29.14 219.664 25.5695C219.664 22.0303 220.823 19.0863 223.141 16.7373C225.459 14.357 228.434 13.1668 232.067 13.1668C235.512 13.1668 238.347 14.357 240.57 16.7373C242.826 19.1176 243.953 22.0617 243.953 25.5695C243.953 26.3525 243.875 27.1825 243.718 28.0594H226.007ZM225.913 23.3614H237.893C237.548 21.7641 236.828 20.574 235.732 19.791C234.667 19.008 233.445 18.6165 232.067 18.6165C230.438 18.6165 229.092 19.0393 228.027 19.8849C226.962 20.6992 226.257 21.8581 225.913 23.3614Z" fill="#22215B"/>
</svg>
