<svg width="206" height="199" viewBox="0 0 206 199" fill="none" xmlns="http://www.w3.org/2000/svg">
<g opacity="0.3">
<path d="M23.1419 110.767C29.592 152.732 69.8982 182.39 113.597 176.444C157.296 170.499 187.02 131.312 180.57 89.3477C174.12 47.3833 133.814 17.7252 90.115 23.6708C46.4163 29.6164 16.6918 68.8029 23.1419 110.767Z" stroke="#F7A02C" stroke-width="19.6834"/>
<mask id="mask0_6327_10433" style="mask-type:alpha" maskUnits="userSpaceOnUse" x="61" y="9" width="135" height="141">
<path d="M112.465 9.33984L61.7298 47.8607L145.119 149.836L195.855 111.315L112.465 9.33984Z" fill="#C4C4C4"/>
</mask>
<g mask="url(#mask0_6327_10433)">
<path fill-rule="evenodd" clip-rule="evenodd" d="M133.484 138.716C111.7 155.248 79.8798 151.341 62.4119 129.991C44.9439 108.64 48.4428 77.9311 70.2269 61.3997C92.011 44.8683 123.831 48.7749 141.299 70.1252C158.767 91.4756 155.268 122.185 133.484 138.716ZM143.687 151.187C114.875 173.051 72.7909 167.884 49.6881 139.646C26.5854 111.409 31.213 70.7934 60.0242 48.9293C88.8353 27.0652 130.92 32.2319 154.023 60.4695C177.125 88.7071 172.498 129.323 143.687 151.187Z" fill="#F7A02C"/>
<path fill-rule="evenodd" clip-rule="evenodd" d="M119.202 121.257C107.256 130.323 89.8062 128.181 80.227 116.472C70.6477 104.764 72.5665 87.9236 84.5126 78.8581C96.4588 69.7925 113.909 71.9348 123.488 83.6431C133.067 95.3513 131.148 112.192 119.202 121.257ZM129.405 133.728C110.432 148.126 82.7173 144.724 67.5032 126.128C52.2891 107.533 55.3365 80.786 74.3098 66.3877C93.2832 51.9895 120.998 55.392 136.212 73.9874C151.426 92.5829 148.378 119.33 129.405 133.728Z" fill="#F7A02C"/>
</g>
<ellipse rx="8.02176" ry="8.01953" transform="matrix(-0.793192 0.601937 0.636035 0.777408 66.7809 54.5171)" fill="#F7A02C"/>
<ellipse rx="8.0216" ry="8.01942" transform="matrix(-0.793183 0.601949 0.636024 0.777417 80.9176 71.8472)" fill="#F7A02C"/>
<ellipse rx="8.02167" ry="8.01945" transform="matrix(-0.793189 0.601942 0.636031 0.777411 125.359 126.317)" fill="#F7A02C"/>
<ellipse rx="8.0217" ry="8.01949" transform="matrix(-0.793189 0.601941 0.636032 0.777411 139.496 143.646)" fill="#F7A02C"/>
</g>
</svg>
